<?xml version="1.0" standalone="no"?>
<!DOCTYPE svg PUBLIC "-//W3C//DTD SVG 1.1//EN" "http://www.w3.org/Graphics/SVG/1.1/DTD/svg11.dtd">
<svg xmlns:inkscape="http://www.inkscape.org/namespaces/inkscape" xmlns:sodipodi="http://sodipodi.sourceforge.net/DTD/sodipodi-0.dtd" xmlns="http://www.w3.org/2000/svg" xmlns:svg="http://www.w3.org/2000/svg" version="1.1" id="svg2" width="853.9466552734375" height="262.7466735839844" viewBox="0 0 853.94666 262.74667" sodipodi:docname="Cheil_logo_black.eps">
  <defs id="defs6"/>
  <sodipodi:namedview id="namedview4" pagecolor="#ffffff" bordercolor="#000000" borderopacity="0.25" inkscape:showpageshadow="2" inkscape:pageopacity="0.0" inkscape:pagecheckerboard="0" inkscape:deskcolor="#d1d1d1"/>
  <g id="g8" inkscape:groupmode="layer" inkscape:label="ink_ext_XXXXXX" transform="matrix(1.3333333,0,0,-1.3333333,0,262.74667)">
    <g id="g10" transform="scale(0.1)">
      <path d="m 1288.28,1225.01 c -11.27,68.44 -72.59,276.35 -327.538,276.35 -288.719,0 -381.203,-263.23 -381.203,-516.294 0,-252.675 92.484,-516.187 381.203,-516.187 207.368,0 293.468,137.082 330.458,313.371 H 1872 C 1872,403 1515.53,0 977.004,0 365.371,0 0,429.352 0,985.066 c 0,572.644 399.633,985.514 977.004,985.514 485.466,0 834.656,-274.02 886.736,-745.57 h -575.46" style="fill:#0a0b0b;fill-opacity:1;fill-rule:nonzero;stroke:none" id="path12"/>
      <path d="m 5083.34,1411.96 h 521.58 V 44.7109 H 5083.34 V 1411.96" style="fill:#0a0b0b;fill-opacity:1;fill-rule:nonzero;stroke:none" id="path14"/>
      <path d="m 5883,1925.73 h 521.64 V 44.7109 H 5883 V 1925.73" style="fill:#0a0b0b;fill-opacity:1;fill-rule:nonzero;stroke:none" id="path16"/>
      <path d="m 5083.34,1462.07 v 463.66 h 544.14 z" style="fill:#0a0b0b;fill-opacity:1;fill-rule:nonzero;stroke:none" id="path18"/>
      <path d="m 4482.98,909.211 c 0,134.019 -96.67,243.239 -233.84,243.239 -158.39,0 -249.7,-86.81 -274.03,-243.239 z M 3972.54,632.379 c 14.16,-170.481 111.7,-286.488 271.32,-286.488 105.48,0 204.2,55.199 237.89,132.808 h 459.97 C 4851.54,175.121 4546.08,4.76953 4254.04,4.76953 c -463.84,0 -781.9,287.03147 -781.9,740.49247 0,412.448 296.31,748.598 746.97,748.598 523.14,0 763.61,-364.19 763.61,-748.598 0,-38.082 -3.15,-76.34 -11.71,-112.883 h -998.47" style="fill:#0a0b0b;fill-opacity:1;fill-rule:nonzero;stroke:none" id="path20"/>
      <path d="m 2486.13,1298.05 c 97.41,87.21 227.13,148.15 415.12,148.15 256.95,0 485.89,-150.11 485.89,-463.798 V 44.7109 H 2865.48 V 761.301 c 0,158.168 -28.92,268.609 -181.73,268.609 -87.11,0 -197.62,-59.609 -197.62,-270.832 V 44.7109 H 1964.45 V 1925.73 h 521.68 v -627.68" style="fill:#0a0b0b;fill-opacity:1;fill-rule:nonzero;stroke:none" id="path22"/>
    </g>
  </g>
</svg>